<svg xmlns="http://www.w3.org/2000/svg" xmlns:xlink="http://www.w3.org/1999/xlink" width="1920" zoomAndPan="magnify" viewBox="0 0 1440 809.999993" height="1080" preserveAspectRatio="xMidYMid meet" version="1.0"><defs><clipPath id="e80151c58d"><path d="M 983 418 L 1393 418 L 1393 809.984375 L 983 809.984375 Z M 983 418 " clip-rule="nonzero"/></clipPath><clipPath id="7efba62f43"><path d="M 223 481 L 567 481 L 567 809.984375 L 223 809.984375 Z M 223 481 " clip-rule="nonzero"/></clipPath><clipPath id="035d5adcba"><path d="M 0 286.484375 L 1440 286.484375 L 1440 809 L 0 809 Z M 0 286.484375 " clip-rule="nonzero"/></clipPath><clipPath id="a8df9e3e0e"><path d="M 755 286.484375 L 931 286.484375 L 931 477 L 755 477 Z M 755 286.484375 " clip-rule="nonzero"/></clipPath><clipPath id="48bc73eeee"><path d="M 0 681 L 1440 681 L 1440 809.984375 L 0 809.984375 Z M 0 681 " clip-rule="nonzero"/></clipPath></defs><g clip-path="url(#e80151c58d)"><path fill="#93abe2" d="M 1392.367188 763.003906 L 1391.671875 761.53125 C 1382.929688 742.277344 1372.296875 724.128906 1359.769531 707.09375 C 1359.363281 706.480469 1358.910156 705.90625 1358.460938 705.292969 C 1358.011719 704.679688 1357.480469 703.984375 1356.988281 703.332031 C 1346.191406 689.140625 1334.167969 675.804688 1325.292969 660.265625 C 1320.183594 650.972656 1315.972656 641.296875 1312.65625 631.226562 C 1306.917969 613.605469 1302.320312 595.691406 1298.871094 577.484375 C 1271.59375 555.890625 1262.390625 517.6875 1240.058594 490.980469 C 1234.375 484.191406 1170.324219 422.066406 1159.40625 418.34375 C 1158.667969 418.097656 1158.179688 418.140625 1157.933594 418.34375 C 1137.484375 444.722656 1119.652344 496.667969 1089.140625 509.058594 C 1074.578125 514.949219 1053.109375 518.179688 1042.84375 530.367188 C 1026.261719 550.054688 1012.546875 571.566406 1001.695312 594.90625 C 1000.386719 597.6875 999.160156 600.46875 997.933594 603.085938 C 979.855469 645.253906 982.023438 693.066406 986.03125 740.425781 C 986.054688 740.589844 986.054688 740.753906 986.03125 740.917969 L 986.523438 747.050781 C 988.324219 767.503906 990.285156 788.195312 990.941406 808.402344 L 1167.585938 808.402344 L 1168.117188 809.136719 L 1168.117188 808.402344 L 1376.128906 808.402344 L 1379.402344 799.363281 L 1386.929688 778.382812 L 1391.34375 766.113281 L 1391.671875 765.171875 L 1392.285156 763.492188 L 1392.285156 763.207031 Z M 1392.367188 763.003906 " fill-opacity="1" fill-rule="nonzero"/></g><g clip-path="url(#7efba62f43)"><path fill="#93abe2" d="M 550.660156 630.039062 C 541.5625 610.476562 530.070312 592.4375 516.179688 575.929688 C 507.550781 565.703125 489.597656 563.003906 477.367188 558.097656 C 451.804688 547.710938 436.835938 504.152344 419.699219 482.066406 C 419.699219 481.820312 419.125 481.777344 418.511719 482.066406 C 409.351562 485.214844 355.652344 537.28125 350.90625 542.921875 C 332.175781 565.335938 324.445312 597.359375 301.582031 615.4375 C 298.699219 630.679688 294.855469 645.675781 290.046875 660.425781 C 287.292969 668.941406 283.761719 677.121094 279.457031 684.96875 C 272.011719 697.972656 261.910156 709.140625 252.871094 721.039062 L 251.644531 722.71875 L 250.539062 724.191406 C 240.054688 738.480469 231.152344 753.695312 223.832031 769.832031 C 223.832031 770.242188 223.421875 770.652344 223.261719 771.058594 L 223.261719 771.59375 L 223.792969 772.984375 L 224.035156 773.757812 L 227.757812 784.1875 L 234.097656 801.777344 L 236.796875 809.382812 L 411.191406 809.382812 L 411.191406 809.996094 L 411.601562 809.382812 L 559.65625 809.382812 C 560.1875 792.613281 561.824219 775.394531 563.339844 758.136719 C 563.339844 756.417969 563.625 754.660156 563.789062 752.941406 C 563.808594 752.804688 563.808594 752.667969 563.789062 752.53125 C 567.140625 712.738281 568.941406 672.777344 553.808594 637.441406 C 552.828125 634.496094 551.761719 632.167969 550.660156 630.039062 Z M 550.660156 630.039062 " fill-opacity="1" fill-rule="nonzero"/></g><g clip-path="url(#035d5adcba)"><path fill="#6a84bd" d="M 1563.449219 527.789062 L 1563.449219 808.523438 L -167.410156 808.523438 L -167.410156 623.414062 C -140.621094 635.789062 -112.78125 644.988281 -83.894531 651.019531 L -82.175781 651.347656 C -57.390625 627.953125 -29.007812 607.054688 -5.652344 583.824219 C 23.957031 554.5 39.867188 505.460938 61.460938 469.304688 C 62.402344 467.792969 63.382812 466.320312 64.449219 464.929688 C 65.511719 463.539062 66.617188 462.1875 67.800781 460.839844 C 72.667969 456.085938 77.964844 451.875 83.695312 448.210938 C 89.429688 444.546875 95.472656 441.503906 101.828125 439.082031 L 106.984375 436.832031 L 109.640625 435.6875 L 117.003906 432.617188 L 117.984375 432.210938 L 127.515625 428.121094 L 128.167969 427.832031 C 130.542969 426.730469 132.914062 425.625 135.246094 424.4375 C 137.425781 423.320312 139.550781 422.175781 141.625 421.003906 C 142.933594 420.226562 144.285156 419.449219 145.714844 418.589844 C 167.144531 440.390625 187.800781 467.339844 208.863281 490.980469 C 213.28125 495.847656 217.699219 500.550781 222.195312 505.050781 C 237.492188 520.226562 237.207031 547.871094 249.761719 565.828125 C 252.59375 569.867188 255.71875 573.671875 259.128906 577.238281 C 274.957031 593.84375 296.183594 604.925781 316.714844 615.4375 C 337.246094 625.949219 354.300781 646.765625 371.886719 664.925781 C 377.460938 670.816406 383.363281 676.351562 389.597656 681.53125 C 390.90625 682.59375 392.214844 683.617188 393.6875 684.558594 C 394.21875 685.007812 394.75 685.375 395.28125 685.746094 L 395.855469 686.195312 C 420.886719 662.839844 450.414062 637.933594 475.40625 614.621094 C 497.082031 613.066406 519.945312 599.609375 540.230469 591.675781 C 546.960938 589.351562 553.125 585.984375 558.714844 581.574219 C 565.03125 575.535156 570.171875 568.625 574.136719 560.835938 C 590.085938 533.570312 606.007812 506.304688 621.90625 479.039062 C 640.636719 446.972656 654.625 406.402344 683.253906 383.292969 C 713.96875 358.507812 723.746094 308.816406 756.875 288.734375 L 759.492188 287.222656 L 759.820312 287.222656 L 760.472656 286.851562 L 761.699219 287.835938 C 811.433594 326.8125 861.371094 371.226562 898.917969 422.597656 C 899.757812 423.554688 900.691406 424.414062 901.710938 425.175781 C 902.730469 425.9375 903.816406 426.589844 904.972656 427.128906 C 906.125 427.667969 907.324219 428.082031 908.5625 428.371094 C 909.800781 428.664062 911.058594 428.824219 912.332031 428.855469 C 920.511719 430.082031 930.246094 429.429688 936.585938 434.867188 C 942.1875 439.652344 944.109375 447.464844 945.992188 454.703125 C 951.222656 474.90625 958.332031 494.421875 967.324219 513.25 C 976.316406 532.082031 987.023438 549.878906 999.449219 566.644531 C 999.203125 576.171875 999.953125 585.621094 1001.695312 594.988281 C 1003.09375 602.238281 1005.015625 609.347656 1007.460938 616.316406 C 1009.902344 623.28125 1012.847656 630.03125 1016.285156 636.566406 C 1019.726562 643.101562 1023.628906 649.347656 1027.988281 655.304688 C 1032.347656 661.261719 1037.121094 666.871094 1042.308594 672.125 C 1047.722656 672.445312 1053.0625 673.257812 1058.324219 674.558594 C 1063.585938 675.859375 1068.6875 677.628906 1073.628906 679.863281 C 1078.566406 682.101562 1083.261719 684.769531 1087.710938 687.867188 C 1092.160156 690.964844 1096.289062 694.445312 1100.101562 698.300781 C 1115.398438 713.351562 1126.890625 732 1138.179688 750.445312 L 1164.925781 794.128906 L 1167.503906 798.21875 C 1167.636719 798.472656 1167.789062 798.71875 1167.953125 798.953125 L 1169.097656 800.835938 L 1172.738281 794.292969 L 1173.554688 792.902344 C 1174.332031 791.511719 1175.109375 790.121094 1175.929688 788.8125 C 1178.875 783.738281 1181.898438 778.570312 1185.007812 773.308594 C 1197.972656 751.550781 1212.082031 728.648438 1223.125 708.605469 C 1224.476562 707.910156 1225.824219 707.132812 1227.214844 706.359375 C 1249.792969 693.230469 1275.230469 669.015625 1294.210938 652.371094 C 1301.242188 646.054688 1307.40625 638.980469 1312.695312 631.144531 C 1332.121094 603.167969 1344.066406 567.054688 1366.476562 542.269531 C 1367.335938 541.328125 1368.238281 540.347656 1369.136719 539.449219 C 1396.785156 553.351562 1429.257812 568.691406 1456.90625 582.636719 C 1466.355469 600.59375 1475.964844 619.894531 1485.535156 639.609375 L 1514.164062 610.285156 Z M 1563.449219 527.789062 " fill-opacity="1" fill-rule="nonzero"/></g><path fill="#1f4d7b" d="M 1416.824219 628.8125 C 1413.472656 625.214844 1409.519531 622.488281 1404.964844 620.632812 C 1397.03125 617.320312 1388.074219 616.953125 1380.671875 612.453125 C 1366.886719 604.273438 1363.125 585.621094 1363.777344 569.304688 C 1363.984375 564.191406 1366.519531 552.332031 1366.4375 542.351562 C 1344.023438 567.175781 1332.082031 603.25 1312.65625 631.265625 C 1307.355469 639.078125 1301.191406 646.140625 1294.167969 652.453125 C 1275.148438 669.097656 1249.710938 693.351562 1227.175781 706.4375 C 1225.785156 707.214844 1224.476562 707.992188 1223.085938 708.6875 C 1212.042969 728.730469 1197.933594 751.632812 1184.96875 773.390625 C 1181.859375 778.652344 1178.832031 783.820312 1175.886719 788.890625 C 1175.070312 790.28125 1174.292969 791.714844 1173.515625 792.980469 L 1172.699219 794.414062 L 1169.058594 800.917969 C 1168.648438 800.304688 1168.28125 799.648438 1167.910156 799.035156 C 1167.746094 798.800781 1167.597656 798.554688 1167.460938 798.300781 C 1167.441406 798.410156 1167.441406 798.515625 1167.460938 798.625 C 1167.078125 801.558594 1166.859375 804.503906 1166.808594 807.460938 L 1166.808594 808.648438 L 1395.84375 808.648438 L 1379.484375 799.609375 L 1356.335938 787.011719 C 1366.0625 782.421875 1376.289062 779.695312 1387.011719 778.832031 C 1389.585938 778.585938 1392.164062 778.503906 1394.78125 778.503906 C 1394.78125 778.257812 1394.78125 778.054688 1394.78125 777.847656 C 1394.796875 777.714844 1394.796875 777.578125 1394.78125 777.441406 C 1393.957031 774.304688 1393.355469 771.128906 1392.980469 767.910156 C 1392.980469 767.09375 1392.980469 766.316406 1392.777344 765.496094 C 1392.574219 764.679688 1392.777344 764.351562 1392.777344 763.78125 L 1392.777344 763.167969 C 1392.542969 758.523438 1392.761719 753.902344 1393.429688 749.300781 C 1394.265625 743.21875 1395.871094 737.34375 1398.242188 731.679688 C 1400.613281 726.015625 1403.671875 720.75 1407.417969 715.886719 L 1360.140625 707.296875 L 1356.582031 706.644531 L 1358.832031 705.5 L 1424.597656 672.777344 C 1425.164062 671.597656 1425.65625 670.382812 1426.070312 669.140625 C 1426.613281 667.414062 1427.039062 665.65625 1427.351562 663.875 C 1427.660156 662.089844 1427.851562 660.296875 1427.921875 658.488281 C 1427.996094 656.679688 1427.949219 654.871094 1427.78125 653.070312 C 1427.613281 651.269531 1427.328125 649.484375 1426.921875 647.722656 C 1426.519531 645.957031 1426 644.226562 1425.363281 642.53125 C 1424.730469 640.835938 1423.988281 639.191406 1423.132812 637.59375 C 1422.28125 635.996094 1421.328125 634.464844 1420.273438 632.992188 C 1419.214844 631.523438 1418.066406 630.128906 1416.824219 628.8125 Z M 1416.824219 628.8125 " fill-opacity="1" fill-rule="nonzero"/><path fill="#1f4d7b" d="M 122.320312 517.566406 C 125.28125 484.738281 131.757812 452.617188 141.746094 421.207031 C 139.648438 422.40625 137.519531 423.550781 135.367188 424.644531 C 133.035156 425.828125 130.664062 426.933594 128.292969 428.039062 L 127.636719 428.324219 L 118.109375 432.414062 L 109.765625 435.890625 L 107.105469 437.035156 L 101.953125 439.285156 C 95.59375 441.707031 89.550781 444.75 83.820312 448.414062 C 78.089844 452.078125 72.789062 456.289062 67.925781 461.042969 C 66.738281 462.3125 65.632812 463.660156 64.570312 465.132812 C 63.507812 466.605469 62.523438 467.996094 61.585938 469.507812 C 39.988281 505.5 24.078125 554.539062 -5.53125 584.027344 C -29.128906 607.054688 -57.390625 627.953125 -82.175781 651.347656 L -83.894531 651.019531 C -112.78125 644.988281 -140.621094 635.789062 -167.410156 623.414062 L -167.410156 808.6875 L -86.0625 808.6875 C -75.511719 799.199219 -60.007812 794.332031 -45.570312 792.738281 C -31.132812 791.140625 -15.386719 791.429688 -0.949219 788.648438 C 5.089844 787.5 10.867188 785.578125 16.390625 782.878906 L 7.597656 779.566406 L -8.761719 773.269531 C -5.449219 772.859375 -2.09375 772.449219 1.300781 771.960938 C 10.625 770.691406 20.113281 769.179688 29.601562 767.625 L 39.582031 765.988281 C 53.117188 763.78125 66.617188 761.613281 79.785156 760.058594 C 78.695312 752.628906 78.527344 745.183594 79.289062 737.714844 C 80.050781 730.246094 81.714844 722.984375 84.285156 715.929688 C 85.511719 712.554688 86.945312 709.269531 88.578125 706.070312 L 34.386719 692.535156 L 111.316406 623.945312 C 118.394531 617.648438 139.949219 612.167969 139.949219 612.167969 C 139.949219 612.167969 141.582031 583.167969 139.007812 573.925781 C 118.109375 558.355469 95.449219 546.015625 71.03125 536.910156 C 86.902344 531.0625 106 528.199219 121.910156 522.351562 C 122.035156 520.757812 122.15625 519.160156 122.320312 517.566406 Z M 122.320312 517.566406 " fill-opacity="1" fill-rule="nonzero"/><path fill="#1f4d7b" d="M 743.214844 547.953125 C 731.800781 538.136719 713.804688 511.144531 714.582031 496.011719 C 715.089844 489.160156 716.5625 482.519531 719 476.09375 C 722.011719 468.234375 725.515625 460.601562 729.511719 453.191406 L 766.320312 381.699219 C 766.035156 380.878906 765.789062 380.0625 765.542969 379.246094 C 760.339844 362.957031 757.148438 346.285156 755.972656 329.226562 C 755.03125 315.628906 755.34375 302.066406 756.914062 288.53125 C 723.703125 308.613281 713.929688 358.304688 683.296875 383.089844 C 654.667969 406.195312 640.515625 446.769531 621.945312 478.835938 C 606.050781 506.101562 590.128906 533.367188 574.175781 560.632812 C 570.203125 568.4375 565.050781 575.363281 558.714844 581.410156 C 553.132812 585.800781 546.984375 589.152344 540.269531 591.472656 C 519.820312 599.40625 497.121094 612.863281 475.445312 614.414062 C 450.414062 637.726562 420.925781 662.675781 395.894531 685.988281 L 395.324219 685.582031 L 393.726562 684.394531 C 395.253906 686.992188 396.980469 689.445312 398.90625 691.761719 C 400.835938 694.074219 402.941406 696.210938 405.222656 698.175781 C 407.507812 700.140625 409.933594 701.90625 412.507812 703.472656 C 415.078125 705.039062 417.761719 706.378906 420.558594 707.503906 C 434.097656 713.351562 448.902344 715.191406 463.378906 717.769531 C 479.355469 720.675781 495.085938 724.5625 510.578125 729.425781 C 521.335938 732.820312 531.96875 736.664062 542.398438 741 C 565.269531 750.414062 587.082031 761.851562 607.835938 775.3125 C 623.332031 785.363281 638.066406 796.417969 652.046875 808.484375 L 710.945312 808.484375 C 715.308594 796.035156 721.007812 784.226562 728.039062 773.0625 C 711.925781 764.882812 696.097656 755.683594 680.1875 746.234375 C 663.132812 736.132812 646.035156 725.785156 628.734375 717.277344 L 685.789062 722.554688 L 707.957031 724.597656 L 747.425781 728.238281 L 753.191406 728.769531 C 750.328125 725.171875 747.546875 721.328125 744.765625 717.320312 C 732.992188 699.949219 722.9375 681.636719 714.59375 662.382812 C 706.253906 643.128906 699.773438 623.269531 695.15625 602.800781 C 714.542969 610.980469 724.234375 614.457031 743.621094 622.757812 C 738.632812 614.988281 734.828125 601.367188 729.839844 593.597656 L 777.363281 612.820312 C 788.570312 617.320312 798.425781 629.179688 808.855469 635.847656 L 810.941406 637.113281 C 806.953125 628.59375 802.527344 620.304688 797.660156 612.25 C 792.792969 604.199219 787.511719 596.425781 781.820312 588.933594 C 776.128906 581.4375 770.054688 574.269531 763.605469 567.417969 C 757.152344 560.570312 750.355469 554.082031 743.214844 547.953125 Z M 743.214844 547.953125 " fill-opacity="1" fill-rule="nonzero"/><g clip-path="url(#a8df9e3e0e)"><path fill="#ecf2ff" d="M 898.835938 422.230469 C 861.289062 370.902344 811.351562 326.445312 761.617188 287.464844 L 760.390625 286.484375 L 759.738281 286.851562 C 758.582031 291.957031 757.738281 297.109375 757.199219 302.3125 C 756.574219 307.117188 756.164062 311.941406 755.964844 316.78125 C 755.765625 321.625 755.78125 326.464844 756.011719 331.304688 C 756.242188 336.144531 756.683594 340.964844 757.339844 345.769531 C 757.996094 350.570312 758.863281 355.332031 759.941406 360.054688 C 761.019531 364.78125 762.304688 369.449219 763.792969 374.058594 C 765.285156 378.667969 766.976562 383.203125 768.871094 387.664062 C 770.761719 392.125 772.847656 396.496094 775.128906 400.769531 C 777.40625 405.046875 779.871094 409.214844 782.515625 413.273438 C 782.8125 406.449219 784.285156 399.894531 786.933594 393.601562 C 787.597656 392.070312 788.449219 390.65625 789.496094 389.355469 C 790.539062 388.058594 791.742188 386.921875 793.09375 385.949219 C 794.449219 384.976562 795.910156 384.203125 797.472656 383.628906 C 799.039062 383.050781 800.652344 382.695312 802.3125 382.558594 C 805.265625 382.90625 808.074219 383.746094 810.738281 385.070312 C 813.398438 386.398438 815.757812 388.136719 817.8125 390.289062 C 831.792969 402.246094 844.433594 415.480469 855.734375 429.996094 C 867.035156 444.515625 876.769531 460.015625 884.929688 476.503906 C 883.257812 473.195312 881.972656 469.742188 881.074219 466.148438 C 880.179688 462.550781 879.691406 458.898438 879.613281 455.195312 C 880.023438 447.832031 884.765625 440.101562 891.882812 439.082031 C 894.414062 438.855469 896.90625 439.058594 899.367188 439.695312 L 930.695312 445.828125 C 924.273438 440.5 918.152344 434.839844 912.332031 428.855469 C 911.039062 428.808594 909.761719 428.625 908.507812 428.308594 C 907.25 427.992188 906.042969 427.546875 904.878906 426.976562 C 903.71875 426.40625 902.625 425.722656 901.609375 424.921875 C 900.589844 424.121094 899.664062 423.222656 898.835938 422.230469 Z M 898.835938 422.230469 " fill-opacity="1" fill-rule="nonzero"/></g><path fill="#ecf2ff" d="M 816.464844 550.410156 C 802.679688 540.46875 786.484375 534.824219 771.066406 527.75 C 755.648438 520.675781 740.351562 511.675781 730.945312 497.28125 C 729.226562 494.582031 727.46875 491.554688 724.480469 490.574219 C 723.652344 490.351562 722.820312 490.347656 721.988281 490.566406 C 721.15625 490.785156 720.433594 491.199219 719.820312 491.800781 L 725.832031 468.078125 C 712.824219 478.628906 711.597656 499.285156 718.101562 514.949219 C 724.605469 530.613281 737.078125 542.679688 748.53125 554.949219 C 764.109375 571.667969 778.351562 589.457031 791.257812 608.316406 C 804.164062 627.175781 815.59375 646.890625 825.542969 667.460938 C 819.164062 643.984375 812.796875 620.511719 806.445312 597.035156 C 805.714844 595.074219 805.273438 593.050781 805.113281 590.964844 C 804.953125 588.878906 805.082031 586.8125 805.503906 584.765625 C 807.835938 577.15625 817.773438 574.539062 824.929688 577.441406 C 832.085938 580.347656 837.199219 586.972656 841.902344 593.3125 C 841.699219 575.808594 830.289062 560.511719 816.464844 550.410156 Z M 816.464844 550.410156 " fill-opacity="1" fill-rule="nonzero"/><path fill="#ecf2ff" d="M 363.75 777.277344 C 358.734375 773.171875 354.644531 768.289062 351.480469 762.636719 C 350.621094 760.875 348.410156 757.238281 349.1875 755.152344 C 351.195312 753.503906 353.375 752.140625 355.734375 751.058594 C 352.207031 745.425781 347.777344 740.625 342.441406 736.664062 C 337.984375 733.1875 333.15625 730.078125 328.289062 726.601562 C 316.46875 718.09375 304.894531 708.851562 291.480469 702.800781 C 289.351562 707.828125 289.964844 715.070312 289.597656 720.46875 C 279.660156 702.800781 267.511719 687.542969 257.617188 669.875 L 243.996094 713.230469 C 258.230469 730.078125 272.296875 750.039062 286.53125 766.765625 C 286.941406 762.226562 290.335938 739.855469 297.164062 739.730469 C 301.253906 739.730469 310.988281 762.265625 313.035156 765.867188 L 317.820312 751.878906 C 321.941406 757.359375 326.484375 762.464844 331.445312 767.199219 C 336.402344 771.933594 341.714844 776.234375 347.382812 780.097656 C 353.046875 783.960938 358.988281 787.335938 365.207031 790.226562 C 371.425781 793.117188 377.839844 795.480469 384.445312 797.316406 C 379.085938 789.546875 370.949219 783.78125 363.75 777.277344 Z M 363.75 777.277344 " fill-opacity="1" fill-rule="nonzero"/><path fill="#ecf2ff" d="M 145.671875 418.835938 C 144.363281 419.652344 143.054688 420.472656 141.582031 421.207031 C 139.539062 422.394531 137.492188 423.539062 135.246094 424.644531 C 130.71875 447.054688 126.820312 469.726562 123.546875 492.660156 C 122.359375 501.125 117.085938 514.988281 125.140625 520.757812 C 131.972656 525.664062 148.660156 525.664062 152.871094 534.046875 C 147.992188 524.324219 144.9375 514.058594 143.710938 503.25 C 151.890625 499.160156 160.4375 495.070312 169.476562 495.070312 C 182.890625 495.277344 194.546875 504.640625 203.464844 514.949219 C 212.378906 525.253906 219.824219 537.15625 230.867188 545.214844 C 218.882812 529.835938 215.203125 509.671875 208.863281 490.980469 C 187.800781 467.339844 167.144531 440.390625 145.671875 418.835938 Z M 145.671875 418.835938 " fill-opacity="1" fill-rule="nonzero"/><path fill="#ecf2ff" d="M 286.570312 621.613281 C 290.988281 629.792969 299.699219 646.605469 297.820312 656.335938 C 299.988281 645.253906 301.910156 634.171875 304.28125 623.085938 C 308.445312 625.300781 312.488281 627.714844 316.410156 630.332031 C 320.332031 632.945312 324.113281 635.75 327.757812 638.746094 C 331.398438 641.738281 334.882812 644.90625 338.210938 648.246094 C 341.539062 651.589844 344.691406 655.085938 347.667969 658.742188 C 350.644531 662.398438 353.433594 666.191406 356.03125 670.125 C 358.632812 674.058594 361.027344 678.113281 363.222656 682.285156 C 365.417969 686.457031 367.402344 690.730469 369.167969 695.101562 C 370.9375 699.472656 372.484375 703.917969 373.808594 708.445312 C 374.007812 693.882812 373.203125 679.375 371.398438 664.925781 C 353.8125 646.808594 336.960938 626.070312 316.183594 615.4375 C 295.40625 604.804688 274.464844 593.882812 258.597656 577.238281 C 258.398438 578.613281 258.355469 579.996094 258.472656 581.378906 C 258.585938 582.765625 258.851562 584.121094 259.273438 585.445312 C 259.695312 586.769531 260.261719 588.03125 260.96875 589.226562 C 261.675781 590.425781 262.507812 591.527344 263.464844 592.535156 C 272.050781 602.1875 280.601562 610.121094 286.570312 621.613281 Z M 286.570312 621.613281 " fill-opacity="1" fill-rule="nonzero"/><path fill="#ecf2ff" d="M 1477.191406 731.304688 C 1460.097656 692.820312 1442.386719 653.597656 1413.105469 623.699219 C 1425.375 636.214844 1418.828125 661.980469 1429.789062 676.871094 C 1444.164062 696.257812 1459.964844 714.402344 1477.191406 731.304688 Z M 1477.191406 731.304688 " fill-opacity="1" fill-rule="nonzero"/><path fill="#ecf2ff" d="M 1430.976562 768.15625 C 1425.328125 763.410156 1419.425781 759.007812 1413.265625 754.945312 C 1410.28125 752.984375 1398.667969 743.574219 1395.148438 745.417969 C 1391.632812 747.257812 1391.835938 763.332031 1391.34375 767.339844 L 1446.4375 782.757812 C 1442.140625 781.652344 1434.65625 771.265625 1430.976562 768.15625 Z M 1430.976562 768.15625 " fill-opacity="1" fill-rule="nonzero"/><path fill="#ecf2ff" d="M 632.457031 744.066406 L 632.824219 743.738281 C 632.773438 743.929688 632.652344 744.039062 632.457031 744.066406 Z M 632.457031 744.066406 " fill-opacity="1" fill-rule="nonzero"/><path fill="#ecf2ff" d="M 633.480469 743.125 L 632.824219 743.738281 C 632.867188 743.453125 632.867188 743.085938 633.480469 743.125 Z M 633.480469 743.125 " fill-opacity="1" fill-rule="nonzero"/><path fill="#ecf2ff" d="M 879.941406 751.265625 C 879.8125 751.460938 879.664062 751.640625 879.488281 751.796875 Z M 879.941406 751.265625 " fill-opacity="1" fill-rule="nonzero"/><g clip-path="url(#48bc73eeee)"><path fill="#061019" d="M 1556.414062 768.402344 L 1557.683594 768.6875 C 1555.035156 764.082031 1551.492188 760.316406 1547.050781 757.398438 C 1547.988281 756.519531 1549.011719 755.75 1550.117188 755.089844 C 1551.222656 754.429688 1552.386719 753.898438 1553.609375 753.488281 C 1554.828125 753.078125 1556.078125 752.804688 1557.359375 752.664062 C 1558.640625 752.523438 1559.917969 752.519531 1561.199219 752.65625 L 1547.292969 739.160156 L 1558.789062 739.484375 C 1553.851562 733.132812 1548.875 726.820312 1543.859375 720.550781 L 1557.070312 721.285156 L 1545.945312 707.011719 C 1545.058594 705.96875 1544.335938 704.824219 1543.777344 703.578125 C 1543.453125 701.6875 1543.484375 699.800781 1543.875 697.925781 C 1544.261719 696.046875 1544.980469 694.304688 1546.027344 692.695312 C 1547.621094 689.261719 1548.765625 684.804688 1546.355469 681.980469 C 1539.03125 691.632812 1531.753906 701.367188 1524.472656 711.019531 C 1527.398438 711.417969 1530.015625 712.535156 1532.324219 714.375 C 1529.539062 718.195312 1526.300781 721.582031 1522.609375 724.535156 C 1518.917969 727.492188 1514.902344 729.914062 1510.566406 731.796875 C 1515.242188 734.351562 1520.21875 735.984375 1525.496094 736.703125 C 1522.84375 740.835938 1519.6875 744.535156 1516.03125 747.804688 C 1512.371094 751.074219 1508.339844 753.796875 1503.941406 755.96875 L 1516.210938 761.652344 C 1512.773438 764.304688 1509.015625 766.375 1504.941406 767.867188 C 1500.867188 769.363281 1496.660156 770.207031 1492.324219 770.40625 L 1505.699219 776.703125 C 1496.160156 779.140625 1486.464844 780.367188 1476.621094 780.386719 L 1490.445312 773.839844 C 1484.660156 773.132812 1479.207031 771.386719 1474.085938 768.605469 C 1475.101562 767.65625 1476.199219 766.816406 1477.378906 766.085938 C 1478.5625 765.355469 1479.804688 764.75 1481.105469 764.265625 C 1482.410156 763.78125 1483.746094 763.429688 1485.117188 763.210938 C 1486.488281 762.992188 1487.871094 762.90625 1489.257812 762.960938 L 1474.820312 753.679688 L 1487.089844 752.613281 C 1485.738281 751.933594 1484.4375 751.164062 1483.183594 750.308594 C 1481.933594 749.457031 1480.746094 748.523438 1479.617188 747.507812 C 1478.488281 746.496094 1477.433594 745.414062 1476.449219 744.261719 C 1475.464844 743.109375 1474.5625 741.898438 1473.742188 740.625 C 1472.917969 739.355469 1472.183594 738.035156 1471.535156 736.664062 C 1470.886719 735.292969 1470.332031 733.886719 1469.871094 732.445312 C 1469.410156 731 1469.046875 729.535156 1468.777344 728.042969 C 1468.511719 726.550781 1468.34375 725.050781 1468.277344 723.535156 L 1445.988281 742.554688 L 1455.882812 744.964844 C 1450.691406 750.167969 1444.855469 754.503906 1438.378906 757.972656 L 1453.101562 761.449219 C 1451.636719 762.773438 1450.046875 763.933594 1448.332031 764.921875 C 1446.621094 765.914062 1444.820312 766.714844 1442.941406 767.324219 C 1441.058594 767.933594 1439.132812 768.339844 1437.164062 768.542969 C 1435.195312 768.742188 1433.230469 768.738281 1431.261719 768.523438 L 1430.117188 768.523438 C 1431.375 770.628906 1432.875 772.539062 1434.621094 774.257812 C 1436.367188 775.976562 1438.300781 777.445312 1440.425781 778.667969 L 1435.925781 780.015625 C 1432.671875 781.089844 1429.347656 781.828125 1425.945312 782.226562 C 1420.605469 782.671875 1415.285156 782.523438 1409.976562 781.785156 C 1404.671875 781.046875 1399.507812 779.734375 1394.496094 777.851562 L 1394.042969 777.851562 L 1394.414062 777.851562 C 1398.09375 775.886719 1401.734375 773.757812 1405.375 771.878906 L 1414.945312 766.644531 L 1392.410156 765.90625 L 1391.425781 765.90625 L 1374.289062 765.335938 C 1377.765625 764.230469 1381.734375 762.429688 1385.210938 761.246094 C 1377.328125 758.246094 1369.800781 754.523438 1362.632812 750.078125 L 1380.589844 747.542969 C 1376.441406 746.390625 1372.503906 744.738281 1368.777344 742.585938 C 1365.050781 740.429688 1361.652344 737.84375 1358.585938 734.824219 L 1374.167969 732.410156 C 1364.066406 728.648438 1356.417969 720.140625 1349.339844 711.960938 C 1342.835938 718.667969 1335.476562 724.242188 1327.257812 728.6875 L 1338.339844 734.167969 C 1339.101562 734.476562 1339.714844 734.964844 1340.179688 735.640625 C 1341.203125 737.523438 1338.953125 739.484375 1337.070312 740.386719 L 1319.691406 748.648438 L 1330.445312 752.738281 C 1331.058594 752.984375 1331.796875 753.351562 1331.917969 754.046875 C 1332.042969 754.742188 1331.386719 755.394531 1330.8125 755.847656 C 1327.1875 758.496094 1323.300781 760.6875 1319.152344 762.417969 C 1315.003906 764.144531 1310.710938 765.363281 1306.273438 766.070312 L 1317.847656 761.613281 C 1314.414062 760.015625 1311.550781 757.238281 1308.238281 755.476562 L 1292.859375 747.296875 C 1292.207031 746.929688 1291.429688 746.398438 1291.46875 745.660156 C 1291.511719 744.925781 1292.410156 744.515625 1293.144531 744.269531 L 1305.414062 740.425781 L 1287.664062 730.449219 C 1292.363281 727.726562 1297.421875 726.1875 1302.839844 725.824219 C 1295.761719 722.167969 1289.222656 717.722656 1283.21875 712.488281 C 1277.214844 707.253906 1271.921875 701.378906 1267.339844 694.863281 L 1253.269531 707.421875 L 1263.371094 708.28125 C 1262.019531 711.238281 1260.222656 713.894531 1257.980469 716.25 C 1255.738281 718.605469 1253.171875 720.527344 1250.285156 722.023438 C 1251.714844 723.78125 1254.375 723.78125 1256.5 724.230469 C 1258.625 724.679688 1261.246094 726.355469 1260.589844 728.605469 C 1260.351562 729.246094 1259.988281 729.804688 1259.503906 730.285156 C 1259.015625 730.765625 1258.453125 731.117188 1257.808594 731.347656 C 1253.488281 733.496094 1248.917969 734.765625 1244.109375 735.152344 L 1254.046875 745.292969 L 1238.382812 742.960938 C 1236.378906 742.636719 1234.046875 742.105469 1233.269531 740.179688 C 1233.109375 739.679688 1233.050781 739.164062 1233.089844 738.640625 C 1233.132812 738.117188 1233.265625 737.617188 1233.5 737.144531 C 1233.730469 736.671875 1234.042969 736.261719 1234.433594 735.910156 C 1234.828125 735.558594 1235.269531 735.289062 1235.765625 735.109375 C 1237.746094 734.429688 1239.761719 734.292969 1241.816406 734.699219 L 1227.910156 722.429688 L 1238.546875 720.179688 C 1234.074219 716.046875 1230.242188 711.382812 1227.050781 706.195312 C 1223.644531 700.703125 1220.726562 694.964844 1218.300781 688.976562 C 1212.714844 701.058594 1205.378906 711.964844 1196.296875 721.695312 C 1195.386719 722.46875 1194.628906 723.371094 1194.023438 724.402344 C 1193.421875 725.433594 1193.007812 726.535156 1192.777344 727.707031 C 1192.777344 730.121094 1195.394531 732.53125 1197.277344 731.101562 L 1185.007812 750.734375 L 1195.519531 752.820312 C 1191.320312 759.957031 1186.074219 766.214844 1179.773438 771.59375 L 1184.925781 773.269531 L 1190.039062 774.945312 C 1188.519531 777.984375 1186.542969 780.6875 1184.109375 783.054688 C 1181.675781 785.425781 1178.921875 787.328125 1175.847656 788.769531 C 1173.617188 789.839844 1171.285156 790.605469 1168.851562 791.058594 L 1173.472656 792.941406 L 1176.992188 794.414062 L 1164.84375 794.414062 C 1161.492188 794.414062 1158.179688 794.003906 1154.824219 793.71875 L 1148.976562 793.105469 C 1149.496094 792.957031 1149.902344 792.65625 1150.203125 792.207031 C 1150.667969 791.386719 1150.765625 790.527344 1150.488281 789.628906 C 1150.335938 789.082031 1150.046875 788.621094 1149.628906 788.238281 L 1148.769531 788.238281 C 1146.332031 788.003906 1143.929688 787.558594 1141.566406 786.910156 C 1139.203125 786.257812 1136.914062 785.410156 1134.699219 784.367188 C 1132.480469 783.320312 1130.371094 782.09375 1128.367188 780.683594 C 1126.363281 779.273438 1124.492188 777.703125 1122.757812 775.96875 L 1128.199219 774.660156 L 1138.261719 772.164062 L 1123.167969 760.917969 L 1139.527344 759.117188 C 1136.933594 757.820312 1134.46875 756.3125 1132.132812 754.59375 C 1129.796875 752.875 1127.625 750.972656 1125.613281 748.878906 C 1123.605469 746.789062 1121.785156 744.542969 1120.160156 742.144531 C 1118.535156 739.742188 1117.125 737.21875 1115.929688 734.578125 C 1109.421875 745.75 1101.132812 755.386719 1091.0625 763.492188 L 1089.015625 765.089844 C 1091.101562 764.804688 1093.105469 764.433594 1095.191406 763.945312 C 1097.964844 763.324219 1100.691406 762.550781 1103.371094 761.613281 C 1102.363281 762.730469 1101.339844 763.792969 1100.304688 764.804688 C 1092.390625 772.910156 1083.71875 780.109375 1074.292969 786.398438 L 1089.304688 789.261719 C 1078.335938 793.777344 1066.925781 796.257812 1055.070312 796.703125 L 1065.910156 792.613281 C 1061.820312 792.613281 1058.710938 794.003906 1054.742188 792.367188 C 1049.785156 790.265625 1044.632812 788.902344 1039.285156 788.277344 L 1048.527344 785.046875 L 1031.308594 777.929688 L 1045.335938 774.085938 L 1027.667969 764.515625 L 1037.199219 763.003906 L 1041.289062 762.347656 L 1024.394531 748.605469 L 1036.460938 747.871094 L 1018.464844 736.089844 L 1031.636719 734.332031 L 1011.1875 713.882812 C 1008.988281 717.503906 1006.386719 720.804688 1003.375 723.78125 C 998.371094 730.289062 992.699219 736.152344 986.359375 741.367188 L 986.074219 741.570312 L 985.789062 741.816406 L 985.949219 741.816406 C 986.140625 741.773438 986.332031 741.773438 986.523438 741.816406 C 988.3125 741.554688 990.003906 741.855469 991.59375 742.71875 C 990.980469 743.332031 990.367188 743.945312 989.796875 744.597656 L 986.441406 748.074219 L 976.21875 758.871094 L 984.398438 759.484375 C 983.757812 760.773438 983 761.984375 982.125 763.125 C 981.25 764.261719 980.269531 765.304688 979.191406 766.253906 C 978.109375 767.199219 976.949219 768.035156 975.703125 768.753906 C 974.460938 769.472656 973.160156 770.0625 971.800781 770.527344 L 980.265625 771.058594 C 976.640625 775.558594 972.320312 779.238281 967.300781 782.101562 L 968.527344 782.675781 C 964.121094 785.503906 959.417969 787.699219 954.417969 789.261719 C 958.175781 791.375 962.117188 793.066406 966.238281 794.332031 C 961.144531 796.511719 955.839844 797.875 950.328125 798.421875 L 954.703125 794.660156 C 951.433594 793.863281 948.367188 792.582031 945.5 790.816406 L 954.664062 786.726562 L 943.375 781.246094 L 952.578125 779.363281 C 948.039062 775.476562 943.375 772.941406 938.546875 769.425781 L 937.320312 768.523438 C 933.117188 771.796875 928.402344 773.9375 923.171875 774.945312 C 926.167969 776.296875 929.304688 777.113281 932.578125 777.398438 C 928.390625 780.378906 923.78125 782.394531 918.753906 783.453125 L 930.492188 784.925781 C 927.355469 786.359375 924.089844 787.386719 920.699219 788 C 917.304688 788.617188 913.890625 788.804688 910.449219 788.566406 L 915.316406 787.378906 L 898.058594 786.03125 C 900.308594 785.007812 901.042969 781.941406 903.089844 780.589844 C 898.992188 778.371094 894.640625 776.886719 890.042969 776.132812 C 892.742188 774.710938 895.550781 773.550781 898.46875 772.65625 C 894.457031 770.527344 890.449219 768.359375 886.441406 766.152344 L 895.359375 763.984375 C 890.441406 759.527344 885.082031 755.679688 879.285156 752.453125 C 875.179688 757.171875 870.433594 761.125 865.050781 764.3125 C 866.925781 765.941406 869.078125 766.988281 871.515625 767.460938 L 860.105469 776.417969 C 862.449219 777.089844 864.765625 777.007812 867.054688 776.171875 C 866.535156 776.902344 865.933594 777.558594 865.25 778.136719 C 864.5625 778.714844 863.816406 779.199219 863.007812 779.589844 C 862.199219 779.980469 861.355469 780.261719 860.476562 780.441406 C 859.597656 780.617188 858.710938 780.679688 857.8125 780.628906 L 865.421875 782.59375 C 862.757812 784.367188 859.828125 785.28125 856.628906 785.335938 C 856.628906 783.820312 854.867188 783.042969 853.394531 782.714844 L 838.101562 779.160156 L 847.507812 774.453125 L 824.480469 765.007812 C 826.074219 764.1875 836.382812 757.398438 837.648438 758.011719 L 823.785156 751.429688 C 827.761719 748.726562 832.085938 746.789062 836.75 745.621094 L 817.976562 731.101562 L 829.511719 728.320312 C 823.089844 722.390625 818.101562 716.050781 811.71875 710.160156 C 811.71875 709.382812 811.433594 708.648438 811.3125 707.871094 L 796.546875 717.195312 L 807.753906 721.980469 C 801.898438 727.121094 795.300781 730.992188 787.957031 733.597656 L 799.449219 735.152344 C 793.996094 737.824219 788.257812 739.542969 782.230469 740.304688 L 784.195312 738.996094 L 771.925781 732.125 L 785.953125 727.460938 L 767.917969 713.925781 C 769.808594 712.949219 771.796875 712.242188 773.875 711.796875 C 775.957031 711.351562 778.0625 711.1875 780.1875 711.304688 C 774.214844 704.84375 768.613281 697.195312 762.597656 690.855469 C 756.996094 696.625 748.980469 700.46875 743.910156 706.398438 C 745.667969 705.621094 747.507812 705.292969 749.429688 705.417969 C 749.890625 705.46875 750.328125 705.597656 750.742188 705.796875 C 751.160156 705.996094 751.53125 706.261719 751.859375 706.589844 C 752.183594 706.914062 752.449219 707.285156 752.648438 707.703125 C 752.851562 708.121094 752.976562 708.558594 753.027344 709.015625 C 753.027344 710.855469 751.476562 712.246094 750.003906 713.351562 C 748.53125 714.457031 746.320312 716.214844 744.441406 717.441406 L 735.890625 724.109375 L 749.101562 725.90625 C 748.449219 726.808594 747.753906 727.667969 747.015625 728.523438 C 744.578125 731.425781 741.761719 733.898438 738.566406 735.933594 C 735.371094 737.972656 731.945312 739.484375 728.285156 740.46875 L 743.664062 745.253906 C 742.546875 745.925781 741.386719 746.515625 740.1875 747.019531 C 738.984375 747.523438 737.753906 747.9375 736.492188 748.265625 C 735.230469 748.589844 733.953125 748.824219 732.65625 748.964844 C 731.363281 749.105469 730.0625 749.152344 728.761719 749.105469 C 727.457031 749.058594 726.167969 748.917969 724.882812 748.683594 C 723.601562 748.453125 722.34375 748.125 721.109375 747.710938 C 719.875 747.292969 718.675781 746.789062 717.515625 746.199219 C 716.351562 745.609375 715.238281 744.941406 714.175781 744.1875 L 728.121094 740.34375 L 707.671875 725.007812 L 716.628906 723.371094 C 711.027344 716.746094 704.769531 711.347656 699.125 704.722656 L 685.503906 722.960938 L 685.21875 723.371094 L 691.230469 723.371094 C 689.359375 726.921875 687.03125 730.140625 684.25 733.03125 C 681.46875 735.925781 678.34375 738.375 674.871094 740.386719 C 676.554688 739.625 678.316406 739.179688 680.160156 739.050781 C 682.003906 738.925781 683.8125 739.125 685.585938 739.648438 C 683.933594 742.167969 681.984375 744.429688 679.738281 746.4375 C 676.707031 749.226562 673.296875 751.4375 669.511719 753.066406 C 671.273438 752.722656 673.039062 752.714844 674.800781 753.042969 C 676.566406 753.367188 678.210938 754 679.738281 754.945312 C 677.773438 757.9375 675.394531 760.546875 672.601562 762.777344 C 669.804688 765.007812 666.730469 766.746094 663.378906 767.992188 L 675.648438 770.734375 C 673.917969 774.183594 671.746094 777.332031 669.132812 780.175781 C 666.519531 783.019531 663.5625 785.445312 660.269531 787.460938 L 670.085938 790.121094 C 669.800781 793.351562 668.410156 795.230469 665.257812 795.027344 C 661.671875 794.789062 658.167969 794.101562 654.753906 792.972656 C 651.339844 791.84375 648.121094 790.308594 645.097656 788.359375 C 648.703125 786.449219 652.519531 785.167969 656.546875 784.515625 L 642.070312 778.054688 L 654.789062 772.449219 C 648.515625 769.359375 642.636719 765.636719 637.160156 761.285156 L 648.203125 758.175781 L 632.539062 744.148438 L 612.988281 761.734375 C 614.632812 761.441406 616.253906 761.523438 617.855469 761.980469 C 618.246094 762.117188 618.605469 762.308594 618.9375 762.550781 C 619.269531 762.796875 619.558594 763.085938 619.804688 763.417969 C 620.046875 763.75 620.238281 764.109375 620.371094 764.5 C 620.507812 764.890625 620.582031 765.289062 620.597656 765.703125 C 620.394531 766.53125 620.023438 767.28125 619.484375 767.945312 C 618.949219 768.609375 618.296875 769.132812 617.53125 769.507812 C 614.296875 771.632812 610.984375 773.597656 607.632812 775.519531 C 605.875 776.539062 604.03125 777.523438 602.234375 778.464844 C 605.566406 779.550781 608.976562 779.890625 612.457031 779.484375 C 609.894531 782.226562 607.03125 784.605469 603.867188 786.621094 C 600.703125 788.636719 597.335938 790.226562 593.765625 791.386719 C 597.113281 793.691406 600.769531 795.300781 604.726562 796.214844 C 601.210938 799.238281 598.796875 804.679688 594.339844 803.65625 C 585.960938 801.726562 577.847656 799 570.003906 795.476562 C 573.183594 793.429688 576.632812 792.066406 580.351562 791.386719 L 563.992188 784.722656 L 572.171875 778.75 C 563.582031 778.75 556.425781 777.890625 547.632812 778.011719 C 550.167969 776.828125 552.703125 775.640625 555.238281 774.535156 C 552.351562 774.453125 549.523438 774.007812 546.753906 773.195312 C 543.980469 772.386719 541.355469 771.238281 538.878906 769.75 L 555.238281 766.152344 L 534.789062 755.191406 L 551.558594 750.816406 C 548.070312 747.859375 544.824219 744.65625 541.824219 741.203125 C 536.695312 735.257812 532.386719 728.769531 528.902344 721.734375 C 528.230469 720.242188 527.875 718.675781 527.832031 717.035156 C 527.789062 715.398438 528.0625 713.816406 528.65625 712.289062 L 510.003906 729.628906 L 492.664062 745.988281 L 503.050781 749.589844 C 498.472656 753.179688 493.386719 755.78125 487.796875 757.398438 C 489.804688 759.140625 492.054688 760.476562 494.546875 761.40625 C 497.039062 762.335938 499.617188 762.800781 502.273438 762.796875 C 496.257812 766.082031 489.835938 768.03125 483.011719 768.648438 L 496.835938 775.070312 C 483.550781 778.308594 470.09375 780.5 456.46875 781.652344 L 467.265625 775.804688 L 456.386719 771.714844 L 471.847656 767.828125 L 443.132812 756.828125 C 444.769531 755.683594 446.773438 751.46875 448.65625 750.898438 L 452.132812 749.832031 L 441.988281 743.371094 C 442.449219 742.972656 442.976562 742.707031 443.574219 742.578125 C 444.167969 742.445312 444.757812 742.464844 445.34375 742.636719 C 446.511719 742.980469 447.695312 743.0625 448.902344 742.878906 C 450.046875 742.511719 450.945312 741 450.210938 740.019531 C 449.851562 739.621094 449.414062 739.351562 448.902344 739.199219 L 438.511719 735.109375 L 446.691406 735.109375 L 432.171875 725.253906 L 442.5625 721.859375 C 437 718.09375 429.925781 713.679688 424.363281 709.996094 C 423.871094 712.246094 421.5 713.351562 419.578125 714.539062 C 417.65625 715.722656 415.730469 717.972656 416.671875 720.019531 C 417.164062 721.082031 418.308594 721.734375 418.636719 722.878906 C 418.964844 724.027344 417.695312 726.03125 416.425781 726.972656 L 404.15625 737.359375 C 405.792969 736.945312 407.429688 736.945312 409.066406 737.359375 C 409.472656 737.476562 409.847656 737.660156 410.1875 737.910156 C 410.53125 738.160156 410.816406 738.460938 411.054688 738.8125 C 411.289062 739.164062 411.457031 739.546875 411.558594 739.957031 C 411.660156 740.367188 411.6875 740.78125 411.640625 741.203125 C 411.40625 741.878906 411.046875 742.476562 410.5625 743.003906 C 410.082031 743.53125 409.511719 743.9375 408.859375 744.230469 C 405.34375 746.316406 401.785156 748.320312 398.144531 750.121094 C 399.851562 749.769531 401.554688 749.769531 403.257812 750.121094 C 403.683594 750.222656 404.082031 750.382812 404.460938 750.601562 C 404.839844 750.816406 405.179688 751.085938 405.480469 751.398438 C 405.78125 751.714844 406.03125 752.066406 406.230469 752.453125 C 406.429688 752.84375 406.570312 753.25 406.652344 753.679688 C 406.898438 756.050781 404.730469 757.769531 402.5625 758.953125 C 400.242188 759.726562 398.347656 761.089844 396.878906 763.042969 C 396.933594 762.628906 396.941406 762.214844 396.90625 761.800781 C 396.867188 761.386719 396.785156 760.980469 396.660156 760.582031 C 396.535156 760.183594 396.367188 759.804688 396.15625 759.445312 C 395.945312 759.082031 395.699219 758.75 395.417969 758.441406 C 395.136719 758.136719 394.820312 757.863281 394.480469 757.628906 C 394.136719 757.390625 393.773438 757.191406 393.386719 757.035156 C 393 756.878906 392.601562 756.765625 392.1875 756.695312 C 391.777344 756.625 391.363281 756.601562 390.945312 756.621094 C 391.511719 755.859375 391.953125 755.027344 392.273438 754.132812 C 392.59375 753.242188 392.777344 752.320312 392.828125 751.371094 C 392.882812 750.421875 392.792969 749.488281 392.570312 748.5625 C 392.347656 747.640625 392 746.769531 391.519531 745.949219 C 389.515625 742.757812 382.847656 742.390625 379.25 743.332031 C 378.988281 743.644531 378.753906 743.980469 378.554688 744.339844 C 378.351562 744.695312 378.1875 745.070312 378.054688 745.457031 C 377.921875 745.84375 377.824219 746.242188 377.765625 746.648438 C 377.707031 747.054688 377.683594 747.460938 377.699219 747.871094 C 377.714844 748.28125 377.765625 748.6875 377.855469 749.085938 C 377.945312 749.488281 378.070312 749.875 378.230469 750.253906 C 378.390625 750.628906 378.582031 750.992188 378.808594 751.332031 C 379.035156 751.675781 379.292969 751.992188 379.578125 752.289062 C 379.046875 752.628906 378.546875 753.007812 378.078125 753.429688 C 377.613281 753.855469 377.183594 754.3125 376.789062 754.804688 C 376.398438 755.296875 376.050781 755.820312 375.742188 756.371094 C 375.4375 756.921875 375.179688 757.496094 374.96875 758.089844 C 374.753906 758.683594 374.59375 759.289062 374.484375 759.910156 C 374.371094 760.53125 374.3125 761.15625 374.304688 761.785156 C 374.296875 762.414062 374.339844 763.042969 374.4375 763.664062 C 374.53125 764.289062 374.675781 764.898438 374.875 765.496094 C 375.199219 766.480469 375.652344 767.707031 374.875 768.441406 C 374.097656 769.179688 373.441406 768.894531 372.625 768.972656 C 371.917969 769.082031 371.277344 769.347656 370.703125 769.765625 C 370.125 770.183594 369.675781 770.710938 369.351562 771.347656 C 369.089844 770.734375 368.710938 770.203125 368.21875 769.753906 C 367.726562 769.304688 367.164062 768.976562 366.53125 768.769531 C 368.617188 768.15625 369.105469 765.128906 368.003906 763.167969 C 366.6875 761.398438 365.039062 760.035156 363.054688 759.078125 C 362.066406 758.570312 361.21875 757.890625 360.511719 757.039062 C 359.800781 756.1875 359.285156 755.230469 358.964844 754.167969 C 358.433594 751.386719 360.4375 748.851562 361.253906 745.988281 C 361.402344 745.375 361.5 744.753906 361.550781 744.125 C 361.601562 743.496094 361.605469 742.863281 361.558594 742.234375 C 361.515625 741.605469 361.421875 740.980469 361.277344 740.367188 C 361.136719 739.75 360.949219 739.152344 360.710938 738.5625 C 360.476562 737.976562 360.199219 737.414062 359.878906 736.871094 C 359.554688 736.328125 359.191406 735.8125 358.792969 735.324219 C 358.390625 734.835938 357.953125 734.382812 357.480469 733.964844 C 357.011719 733.542969 356.507812 733.160156 355.976562 732.820312 C 354.902344 732.195312 353.78125 731.679688 352.605469 731.277344 C 351.429688 730.875 350.222656 730.589844 348.992188 730.425781 C 347.761719 730.261719 346.523438 730.21875 345.285156 730.296875 C 344.042969 730.375 342.824219 730.578125 341.621094 730.898438 C 340.03125 731.234375 338.535156 731.804688 337.125 732.613281 C 336.007812 733.210938 335.09375 734.03125 334.371094 735.070312 C 333.648438 736.105469 333.203125 737.253906 333.035156 738.503906 C 332.746094 741.859375 335.121094 745.046875 334.425781 748.320312 C 333.894531 750.9375 331.644531 752.695312 330.046875 754.824219 C 328.453125 756.949219 327.878906 760.507812 330.046875 761.859375 C 328.792969 761.9375 327.539062 761.9375 326.285156 761.859375 C 324.691406 761.734375 323.09375 761.734375 321.5 761.859375 C 321.785156 760.234375 321.949219 758.597656 321.992188 756.949219 C 322.011719 754.5625 321.742188 752.207031 321.1875 749.886719 C 320.632812 747.5625 319.808594 745.339844 318.710938 743.21875 C 317.613281 741.101562 316.273438 739.144531 314.699219 737.347656 C 313.125 735.554688 311.355469 733.976562 309.394531 732.613281 C 305.792969 730.242188 300.925781 727.296875 301.949219 723.042969 C 295.40625 724.191406 291.644531 731.222656 288.78125 737.320312 C 287.753906 739.0625 287.304688 740.941406 287.429688 742.960938 C 287.800781 744.886719 289.925781 746.519531 291.519531 745.621094 C 291.6875 748.945312 291.363281 752.21875 290.546875 755.449219 C 289.730469 758.675781 288.460938 761.710938 286.734375 764.558594 C 286.484375 765.027344 286.195312 765.476562 285.875 765.90625 L 285.019531 767.132812 C 285.058594 766.328125 285.058594 765.523438 285.019531 764.722656 C 284.554688 759.675781 283.5 754.757812 281.851562 749.964844 C 280.207031 745.171875 278.019531 740.644531 275.285156 736.378906 C 270.210938 728.199219 263.382812 718.871094 266.816406 709.835938 C 263.714844 711.039062 260.820312 712.625 258.136719 714.597656 C 255.453125 716.566406 253.070312 718.851562 250.988281 721.449219 C 249.613281 723.210938 248.402344 725.078125 247.347656 727.054688 C 245.4375 731 243.910156 735.089844 242.769531 739.324219 C 239.78125 749.34375 236.796875 759.773438 238.472656 770.121094 C 239.035156 772.265625 239.144531 774.433594 238.800781 776.621094 C 238.269531 778.75 236.101562 780.710938 234.097656 779.894531 C 232.09375 779.078125 232.460938 775.191406 234.546875 775.394531 C 228.578125 773.144531 222.890625 770.527344 216.921875 768.277344 L 231.808594 763.902344 C 227.476562 762.617188 223.367188 760.816406 219.484375 758.503906 C 215.601562 756.191406 212.058594 753.4375 208.863281 750.242188 L 220.273438 748.402344 C 213.035156 741.570312 206.082031 734.578125 198.882812 727.707031 C 192.972656 733.824219 186.15625 738.664062 178.433594 742.226562 C 180.121094 743.492188 181.957031 744.472656 183.945312 745.171875 C 185.933594 745.871094 187.984375 746.25 190.089844 746.316406 C 185.457031 751.882812 180.003906 756.476562 173.730469 760.097656 L 187.964844 766.683594 C 182.238281 772.820312 172.421875 772.574219 164.855469 769.21875 C 166.183594 767.691406 167.6875 766.367188 169.375 765.25 C 171.0625 764.132812 172.871094 763.261719 174.792969 762.636719 L 157.65625 755.273438 C 156.929688 755.0625 156.269531 754.730469 155.667969 754.273438 C 155.070312 753.8125 154.574219 753.261719 154.179688 752.613281 C 154.027344 752.121094 153.96875 751.613281 154 751.097656 C 154.03125 750.578125 154.152344 750.082031 154.363281 749.609375 C 154.570312 749.136719 154.859375 748.714844 155.222656 748.34375 C 155.585938 747.976562 156 747.679688 156.472656 747.460938 C 158.378906 746.675781 160.355469 746.417969 162.402344 746.683594 C 155.816406 741.121094 149.640625 734.863281 143.054688 729.261719 C 135.5625 738.101562 127.273438 746.117188 118.1875 753.308594 L 130.132812 756.089844 C 128.988281 759.445312 125.59375 759.117188 121.953125 759.078125 C 115.386719 758.832031 109.058594 757.46875 102.976562 754.988281 L 109.847656 751.878906 L 92.789062 739.609375 C 95.859375 739.609375 99.90625 738.175781 99.660156 735.070312 C 99.660156 733.269531 97.945312 732.082031 96.59375 730.980469 C 91.5 726.699219 87.410156 721.617188 84.324219 715.722656 C 82.074219 711.839844 79.867188 707.75 77.984375 703.660156 C 65.117188 719.554688 51.890625 735.164062 38.3125 750.488281 L 53.527344 746.644531 C 46.433594 754.578125 38.386719 761.394531 29.398438 767.09375 C 28.292969 767.828125 27.148438 768.523438 26.003906 769.21875 C 29.234375 767.707031 33.242188 770.898438 33.488281 774.535156 C 33.484375 775.445312 33.355469 776.339844 33.105469 777.214844 C 32.855469 778.085938 32.488281 778.910156 32.007812 779.683594 C 31.527344 780.457031 30.949219 781.148438 30.277344 781.761719 C 29.605469 782.375 28.863281 782.882812 28.046875 783.289062 C 24.765625 784.8125 21.316406 785.644531 17.699219 785.785156 C 20.617188 787.152344 23.230469 788.957031 25.542969 791.199219 C 27.855469 793.441406 29.738281 796 31.195312 798.871094 C 23.410156 800.167969 15.628906 800.167969 7.84375 798.871094 C 10.011719 797.929688 10.296875 799.199219 11.933594 797.359375 C 12.496094 796.691406 13.183594 796.199219 13.996094 795.886719 C 14.8125 795.574219 15.648438 795.480469 16.511719 795.601562 C 11.722656 794.640625 7.183594 792.988281 2.898438 790.636719 C -1.382812 788.285156 -5.214844 785.34375 -8.597656 781.816406 L 7.761719 779.199219 L 9.273438 778.953125 C 6.464844 776.675781 3.820312 774.222656 1.339844 771.59375 C -4.304688 765.621094 -8.886719 759.320312 -14.609375 752.328125 L -1.808594 749.628906 C -8.085938 745.152344 -13.84375 740.085938 -19.085938 734.429688 C -24.328125 728.773438 -28.945312 722.648438 -32.933594 716.050781 L -59.804688 747.746094 C -57.558594 747.335938 -55.316406 747.34375 -53.074219 747.765625 C -50.832031 748.1875 -48.738281 749 -46.796875 750.203125 C -49.875 756.40625 -53.734375 762.074219 -58.375 767.214844 C -63.015625 772.355469 -68.261719 776.773438 -74.121094 780.46875 L -63.730469 784.066406 C -67.015625 786.089844 -70.519531 787.605469 -74.242188 788.605469 C -77.964844 789.609375 -81.757812 790.058594 -85.613281 789.957031 L -69.703125 793.1875 C -76.65625 795.84375 -81.972656 799.117188 -89.089844 801.816406 L -123.851562 794.167969 L -110.96875 791.714844 C -119.128906 786.957031 -126.121094 780.863281 -131.949219 773.433594 L -117.472656 772.492188 C -123.71875 767.285156 -129.402344 761.53125 -134.53125 755.21875 C -139.65625 748.910156 -144.128906 742.164062 -147.941406 734.988281 C -149.785156 741.113281 -152.351562 746.917969 -155.648438 752.402344 C -158.945312 757.886719 -162.863281 762.878906 -167.410156 767.378906 L -167.410156 808.6875 L 1167.667969 808.6875 L 1168.199219 809.425781 L 1168.199219 808.6875 L 1563.449219 808.6875 L 1563.449219 770.734375 C 1561.15625 769.796875 1558.8125 769.019531 1556.414062 768.402344 Z M 1556.414062 768.402344 " fill-opacity="1" fill-rule="nonzero"/></g></svg>